<svg width="323" height="323" viewBox="0 0 323 323" fill="none" xmlns="http://www.w3.org/2000/svg">
<rect width="322.756" height="322.756" rx="98" fill="url(#paint0_linear_233_12)"/>
<path fill-rule="evenodd" clip-rule="evenodd" d="M133.611 157.052C133.579 157.591 133.563 158.134 133.563 158.681C133.563 159.228 133.579 159.773 133.611 160.312C134.399 173.667 144.806 184.239 157.527 184.24C170.705 184.24 181.401 172.895 181.493 158.865V75.3384H201.13V129.236H206.347L254.423 75.3384H282.421L225.022 139.686L282.421 204.037H254.423L206.347 150.137H201.13V227.278C201.13 238.4 192.676 247.417 182.246 247.417H40.3346V226.475H176.584C179.295 226.475 181.493 224.131 181.493 221.239V197.536C174.616 202.37 166.379 205.182 157.527 205.182L156.403 205.167C154.965 205.128 154.284 205.182 152.239 205.182H40.3346V173.46L112.703 96.2807H40.3346V75.3384H133.611V157.052ZM58.3249 183.89H120.882C116.83 177.204 114.343 169.338 113.974 160.882V124.542L58.3249 183.89Z" fill="white"/>
<defs>
<linearGradient id="paint0_linear_233_12" x1="20.8728" y1="322.756" x2="318.189" y2="-13.5564" gradientUnits="userSpaceOnUse">
<stop stop-color="#102B63"/>
<stop offset="1" stop-color="#B2E8FF"/>
</linearGradient>
</defs>
</svg>
